<svg width="35" height="40" viewBox="0 0 35 40" fill="none" xmlns="http://www.w3.org/2000/svg">
<mask id="path-1-inside-1_3_199" fill="white">
<path fill-rule="evenodd" clip-rule="evenodd" d="M-0.00012207 28.2713C2.91856 21.7203 9.65541 17.1341 17.4999 17.1341C25.3444 17.1341 32.0812 21.7203 34.9999 28.2713C32.0812 34.8224 25.3444 39.4085 17.4999 39.4085C9.65541 39.4085 2.91856 34.8224 -0.00012207 28.2713Z"/>
</mask>
<path d="M-0.00012207 28.2713L-0.913565 27.8644L-1.09488 28.2713L-0.913566 28.6783L-0.00012207 28.2713ZM34.9999 28.2713L35.9133 28.6783L36.0946 28.2713L35.9133 27.8644L34.9999 28.2713ZM0.913321 28.6783C3.67108 22.4884 10.0497 18.1341 17.4999 18.1341V16.1341C9.26109 16.1341 2.16603 20.9521 -0.913565 27.8644L0.913321 28.6783ZM17.4999 18.1341C24.95 18.1341 31.3287 22.4884 34.0864 28.6783L35.9133 27.8644C32.8337 20.9521 25.7387 16.1341 17.4999 16.1341V18.1341ZM34.0864 27.8644C31.3287 34.0542 24.95 38.4085 17.4999 38.4085V40.4085C25.7387 40.4085 32.8337 35.5905 35.9133 28.6783L34.0864 27.8644ZM17.4999 38.4085C10.0497 38.4085 3.67108 34.0542 0.913321 27.8644L-0.913566 28.6783C2.16603 35.5905 9.2611 40.4085 17.4999 40.4085V38.4085Z" fill="#F59200" mask="url(#path-1-inside-1_3_199)"/>
<path d="M24.3044 6.85365C24.3044 10.347 21.3712 13.2073 17.7174 13.2073C14.0636 13.2073 11.1304 10.347 11.1304 6.85365C11.1304 3.36028 14.0636 0.5 17.7174 0.5C21.3712 0.5 24.3044 3.36028 24.3044 6.85365Z" stroke="#F59200"/>
</svg>
