<svg width="306" height="35" viewBox="0 0 306 35" fill="none" xmlns="http://www.w3.org/2000/svg">
<g filter="url(#filter0_d_12_166)">
<path d="M18.3674 8.07031C18.2547 7.01586 17.7798 6.19484 16.9426 5.60724C16.1136 5.01965 15.035 4.72585 13.7069 4.72585C12.7731 4.72585 11.9722 4.86671 11.3042 5.14844C10.6361 5.43016 10.1249 5.8125 9.77077 6.29545C9.41661 6.77841 9.2355 7.32978 9.22745 7.94957C9.22745 8.46473 9.34416 8.91146 9.57759 9.28977C9.81907 9.66809 10.1451 9.99006 10.5556 10.2557C10.9661 10.5133 11.4209 10.7306 11.9199 10.9077C12.419 11.0848 12.9221 11.2337 13.4292 11.3544L15.7473 11.9339C16.681 12.1513 17.5785 12.4451 18.4398 12.8153C19.3091 13.1856 20.0859 13.6525 20.7701 14.2159C21.4623 14.7794 22.0096 15.4595 22.4121 16.2564C22.8146 17.0533 23.0158 17.987 23.0158 19.0575C23.0158 20.5064 22.6455 21.7822 21.905 22.8849C21.1645 23.9796 20.0939 24.8369 18.6934 25.4567C17.3008 26.0684 15.6145 26.3743 13.6344 26.3743C11.7106 26.3743 10.0404 26.0765 8.62376 25.4808C7.21514 24.8852 6.11239 24.0159 5.31552 22.8729C4.52669 21.7299 4.10008 20.3374 4.03569 18.6953H8.44265C8.50704 19.5566 8.77267 20.273 9.23952 20.8445C9.70638 21.416 10.3141 21.8426 11.0627 22.1243C11.8193 22.406 12.6645 22.5469 13.5982 22.5469C14.5721 22.5469 15.4254 22.402 16.1578 22.1122C16.8984 21.8144 17.4779 21.4039 17.8965 20.8807C18.315 20.3494 18.5284 19.7296 18.5364 19.0213C18.5284 18.3774 18.3392 17.8461 17.9689 17.4276C17.5987 17.0009 17.0795 16.6468 16.4114 16.3651C15.7514 16.0753 14.9786 15.8177 14.0932 15.5923L11.28 14.8679C9.24355 14.3447 7.6337 13.5518 6.45046 12.4893C5.27527 11.4188 4.68768 9.99811 4.68768 8.22727C4.68768 6.77036 5.08209 5.49455 5.87092 4.39986C6.66779 3.30516 7.75041 2.45597 9.11879 1.85227C10.4872 1.24053 12.0366 0.934658 13.7672 0.934658C15.522 0.934658 17.0594 1.24053 18.3794 1.85227C19.7076 2.45597 20.7499 3.29711 21.5066 4.37571C22.2632 5.44626 22.6536 6.67779 22.6777 8.07031H18.3674ZM34.3562 5.0277V1.27273H54.0849V5.0277H46.4421V26H41.9989V5.0277H34.3562ZM66.3217 26V1.27273H75.5945C77.4941 1.27273 79.0878 1.60275 80.3757 2.26278C81.6716 2.92282 82.6496 3.84848 83.3097 5.03977C83.9777 6.22301 84.3118 7.60346 84.3118 9.18111C84.3118 10.7668 83.9737 12.1432 83.2976 13.3104C82.6295 14.4695 81.6435 15.367 80.3395 16.0028C79.0355 16.6307 77.4337 16.9446 75.5341 16.9446H68.9297V13.2259H74.9304C76.0412 13.2259 76.9508 13.0729 77.6591 12.767C78.3674 12.4531 78.8906 11.9983 79.2287 11.4027C79.5748 10.799 79.7479 10.0585 79.7479 9.18111C79.7479 8.30374 79.5748 7.55516 79.2287 6.93537C78.8826 6.30753 78.3554 5.83262 77.647 5.51065C76.9387 5.18063 76.0251 5.01562 74.9062 5.01562H70.8011V26H66.3217ZM79.0959 14.7955L85.2173 26H80.2188L74.206 14.7955H79.0959ZM96.8686 26V1.27273H112.951V5.0277H101.348V11.7408H112.118V15.4957H101.348V22.245H113.048V26H96.8686ZM125.955 26V1.27273H142.037V5.0277H130.434V11.7408H141.204V15.4957H130.434V22.245H142.134V26H125.955ZM153.954 5.0277V1.27273H173.683V5.0277H166.04V26H161.597V5.0277H153.954ZM199.557 26L192.578 1.27273H197.396L201.851 19.4439H202.08L206.837 1.27273H211.22L215.989 19.456H216.207L220.662 1.27273H225.479L218.501 26H214.082L209.131 8.64986H208.938L203.976 26H199.557ZM241.498 1.27273V26H237.019V1.27273H241.498ZM268.221 8.07031C268.108 7.01586 267.633 6.19484 266.796 5.60724C265.967 5.01965 264.888 4.72585 263.56 4.72585C262.627 4.72585 261.826 4.86671 261.158 5.14844C260.49 5.43016 259.978 5.8125 259.624 6.29545C259.27 6.77841 259.089 7.32978 259.081 7.94957C259.081 8.46473 259.198 8.91146 259.431 9.28977C259.673 9.66809 259.999 9.99006 260.409 10.2557C260.82 10.5133 261.274 10.7306 261.773 10.9077C262.272 11.0848 262.776 11.2337 263.283 11.3544L265.601 11.9339C266.535 12.1513 267.432 12.4451 268.293 12.8153C269.163 13.1856 269.939 13.6525 270.624 14.2159C271.316 14.7794 271.863 15.4595 272.266 16.2564C272.668 17.0533 272.869 17.987 272.869 19.0575C272.869 20.5064 272.499 21.7822 271.759 22.8849C271.018 23.9796 269.947 24.8369 268.547 25.4567C267.154 26.0684 265.468 26.3743 263.488 26.3743C261.564 26.3743 259.894 26.0765 258.477 25.4808C257.069 24.8852 255.966 24.0159 255.169 22.8729C254.38 21.7299 253.954 20.3374 253.889 18.6953H258.296C258.361 19.5566 258.626 20.273 259.093 20.8445C259.56 21.416 260.168 21.8426 260.916 22.1243C261.673 22.406 262.518 22.5469 263.452 22.5469C264.426 22.5469 265.279 22.402 266.011 22.1122C266.752 21.8144 267.331 21.4039 267.75 20.8807C268.169 20.3494 268.382 19.7296 268.39 19.0213C268.382 18.3774 268.193 17.8461 267.822 17.4276C267.452 17.0009 266.933 16.6468 266.265 16.3651C265.605 16.0753 264.832 15.8177 263.947 15.5923L261.134 14.8679C259.097 14.3447 257.487 13.5518 256.304 12.4893C255.129 11.4188 254.541 9.99811 254.541 8.22727C254.541 6.77036 254.936 5.49455 255.724 4.39986C256.521 3.30516 257.604 2.45597 258.972 1.85227C260.341 1.24053 261.89 0.934658 263.621 0.934658C265.375 0.934658 266.913 1.24053 268.233 1.85227C269.561 2.45597 270.603 3.29711 271.36 4.37571C272.117 5.44626 272.507 6.67779 272.531 8.07031H268.221ZM285.296 26V1.27273H301.379V5.0277H289.776V11.7408H300.546V15.4957H289.776V22.245H301.475V26H285.296Z" fill="white"/>
</g>
<defs>
<filter id="filter0_d_12_166" x="0.0356445" y="0.934662" width="305.44" height="33.4396" filterUnits="userSpaceOnUse" color-interpolation-filters="sRGB">
<feFlood flood-opacity="0" result="BackgroundImageFix"/>
<feColorMatrix in="SourceAlpha" type="matrix" values="0 0 0 0 0 0 0 0 0 0 0 0 0 0 0 0 0 0 127 0" result="hardAlpha"/>
<feOffset dy="4"/>
<feGaussianBlur stdDeviation="2"/>
<feComposite in2="hardAlpha" operator="out"/>
<feColorMatrix type="matrix" values="0 0 0 0 0 0 0 0 0 0 0 0 0 0 0 0 0 0 0.6 0"/>
<feBlend mode="normal" in2="BackgroundImageFix" result="effect1_dropShadow_12_166"/>
<feBlend mode="normal" in="SourceGraphic" in2="effect1_dropShadow_12_166" result="shape"/>
</filter>
</defs>
</svg>
