<svg width="25" height="25" viewBox="0 0 25 25" fill="none" xmlns="http://www.w3.org/2000/svg">
<path d="M16.2066 0H16.4871C17.3864 0.0961914 17.9692 0.72998 18.5017 1.41504C18.5128 1.42969 18.5274 1.43473 18.5457 1.43018C19.1118 1.2863 19.6784 1.14274 20.2452 0.999512C20.3596 0.97054 20.4493 0.95931 20.5144 0.96582C20.9669 1.01123 21.1472 1.56104 20.7871 1.82275C20.711 1.87809 20.5667 1.93148 20.3542 1.98291C19.9492 2.08089 19.5451 2.18408 19.1418 2.29248C19.1218 2.29801 19.1167 2.30941 19.1263 2.32666C20.0293 3.97152 20.248 5.70117 19.7824 7.51562C19.7782 7.5319 19.7837 7.54427 19.7989 7.55273L22.2614 8.89648C22.2787 8.90592 22.2919 8.90202 22.3012 8.88477C22.4187 8.66048 22.5872 8.55387 22.8069 8.56494C22.9172 8.57048 23.0742 8.62956 23.2781 8.74219C23.6609 8.9541 24.1526 9.18066 24.4352 9.43359C24.9828 9.92285 25.145 10.708 24.8655 11.3584C24.8115 11.4844 24.7033 11.6497 24.5411 11.8545C23.8362 12.7441 23.2483 13.6981 22.7775 14.7163C22.6301 15.035 22.512 15.2505 22.4231 15.3628C21.9303 15.9834 21.0774 16.1929 20.3191 15.8921C19.6665 15.6333 19.3021 15.1304 19.226 14.3833C19.2243 14.3664 19.2157 14.3537 19.2002 14.3452L14.4337 11.7441C14.4175 11.7354 14.4032 11.7376 14.3908 11.751C13.4077 12.7969 11.8383 13.0767 10.5521 12.373C10.3096 12.2406 10.1409 12.1479 10.0458 12.0952C10.0275 12.0851 10.0131 12.0887 10.0024 12.106L9.39284 13.1025C9.39093 13.1056 9.3902 13.1092 9.39077 13.1127C9.39133 13.1163 9.39315 13.1196 9.39594 13.1221C9.91011 13.5785 10.0887 14.0973 9.93163 14.6787C9.88583 14.8486 9.76426 15.0946 9.56693 15.4165C8.4728 17.202 7.38109 18.9886 6.29179 20.7764C6.07345 21.1348 5.89678 21.375 5.76178 21.4971C5.32509 21.8916 4.77063 21.9989 4.09838 21.8188C4.08185 21.8143 4.06911 21.8192 4.06015 21.8335L3.19539 23.249C3.15693 23.3121 3.10443 23.3667 3.04145 23.4092C2.31135 23.901 1.5685 24.3994 0.812911 24.9043C0.736973 24.9551 0.662068 24.978 0.576316 25H0.42754C-0.096792 24.8599 -0.0105226 24.5171 0.0349367 24.0537C0.10657 23.3177 0.178891 22.5931 0.251901 21.8799C0.259047 21.8097 0.281941 21.7418 0.319057 21.6807L1.19002 20.2559C1.19897 20.2409 1.19656 20.228 1.18278 20.2173C0.694613 19.8232 0.475582 19.2065 0.656386 18.624C0.693924 18.5039 0.796724 18.306 0.964786 18.0303C2.12159 16.1348 3.27908 14.2397 4.43726 12.3452C4.56916 12.1297 4.69228 11.971 4.80661 11.8691C5.26224 11.4626 5.82101 11.3517 6.48293 11.5366C6.50152 11.5418 6.51582 11.5365 6.5258 11.5205L7.14984 10.498C7.15417 10.491 7.15596 10.4829 7.15493 10.4748C7.1539 10.4668 7.15012 10.4593 7.14415 10.4536C6.59658 9.90967 6.44728 9.19775 6.77015 8.54688C7.01759 8.04834 7.49285 7.6875 8.06729 7.59668C8.87264 7.46973 9.42022 7.87988 10.0546 8.22656C10.0711 8.23535 10.0823 8.23112 10.0882 8.21387C10.1269 8.10205 10.1656 7.99512 10.2276 7.89307C10.8341 6.89827 11.4413 5.90381 12.0491 4.90967C12.1063 4.81624 12.1862 4.71663 12.2888 4.61084C12.3022 4.59717 12.3003 4.58577 12.2831 4.57666C12.0512 4.45361 11.6524 4.28809 11.5253 4.08154C11.3739 3.83398 11.4922 3.521 11.7593 3.4043C11.9463 3.32275 12.1106 3.35693 12.2955 3.45801C13.6008 4.17188 14.9068 4.88411 16.2138 5.59473C16.2338 5.60547 16.2432 5.59993 16.2422 5.57812C16.1961 4.70605 15.8687 3.94548 15.2602 3.29639C15.2543 3.29024 15.2467 3.28575 15.2383 3.28342C15.2299 3.28109 15.2211 3.28102 15.2127 3.2832C15.0437 3.32959 14.8547 3.39453 14.6888 3.36572C14.1883 3.27832 14.1185 2.67969 14.552 2.44971C14.5688 2.44092 14.574 2.4279 14.5674 2.41064C14.1211 1.24805 14.9342 0.138184 16.2066 0ZM16.9081 1.18945C16.376 0.71582 15.5009 1.08594 15.4782 1.74512C15.4699 1.99121 15.5464 2.18815 15.7075 2.33594C16.8489 3.38118 17.3687 4.65039 17.2671 6.14355C17.2661 6.16146 17.2737 6.1748 17.2898 6.18359L18.8231 7.02002C18.8251 7.02105 18.8273 7.02163 18.8296 7.0217C18.8319 7.02178 18.8342 7.02135 18.8363 7.02045C18.8384 7.01956 18.8403 7.01821 18.8417 7.01653C18.8432 7.01484 18.8442 7.01286 18.8448 7.01074C19.3071 4.87402 18.5947 2.69238 16.9081 1.18945ZM14.831 6.40934C14.8845 6.32175 14.899 6.21766 14.8713 6.11997C14.8436 6.02228 14.776 5.93898 14.6833 5.88841L13.5031 5.24437C13.4105 5.1938 13.3004 5.1801 13.197 5.20627C13.0936 5.23245 13.0055 5.29636 12.952 5.38395L11.1269 8.37191C11.0734 8.4595 11.0589 8.56359 11.0866 8.66128C11.1143 8.75897 11.1819 8.84227 11.2746 8.89284L12.4548 9.53688C12.5474 9.58745 12.6576 9.60115 12.7609 9.57498C12.8643 9.5488 12.9524 9.48489 13.0059 9.3973L14.831 6.40934ZM14.9941 10.4634C15.5889 9.4777 16.189 8.49479 16.7944 7.51465C16.8623 7.4043 16.9427 7.30094 17.0357 7.20459C17.0498 7.19027 17.0479 7.17822 17.03 7.16846L15.9049 6.55518C15.8884 6.54606 15.877 6.55013 15.8708 6.56738C15.8164 6.7181 15.7711 6.82308 15.7349 6.88232C15.1347 7.8654 14.534 8.84847 13.9331 9.83154C13.8566 9.95703 13.776 10.0576 13.6753 10.1636C13.6588 10.1808 13.6612 10.1953 13.6825 10.207L14.7978 10.8149C14.8185 10.8263 14.8323 10.8213 14.8392 10.7998C14.879 10.6758 14.9249 10.5781 14.9941 10.4634ZM19.5815 9.00462C19.6081 8.96129 19.6253 8.91344 19.6323 8.8638C19.6394 8.81417 19.6359 8.76371 19.6223 8.71531C19.6087 8.66691 19.5851 8.62153 19.5529 8.58175C19.5208 8.54196 19.4806 8.50856 19.4348 8.48344L18.2558 7.83746C18.1632 7.78673 18.0531 7.77285 17.9497 7.79885C17.8463 7.82486 17.7581 7.88863 17.7044 7.97613L15.8743 10.9602C15.8478 11.0036 15.8305 11.0514 15.8235 11.101C15.8165 11.1507 15.8199 11.2011 15.8335 11.2495C15.8471 11.2979 15.8707 11.3433 15.9029 11.3831C15.935 11.4229 15.9752 11.4563 16.021 11.4814L17.2 12.1274C17.2926 12.1781 17.4027 12.192 17.5061 12.166C17.6095 12.14 17.6977 12.0762 17.7514 11.9887L19.5815 9.00462ZM8.45627 8.55908C7.84929 8.47705 7.40554 9.15381 7.76147 9.63574C7.83207 9.73177 8.00323 9.85384 8.27495 10.002C9.14522 10.4762 10.0153 10.9513 10.8852 11.4272C11.1463 11.5698 11.3626 11.6632 11.5341 11.7075C12.2483 11.8921 12.8966 11.7384 13.479 11.2466C13.481 11.2449 13.4825 11.2427 13.4835 11.2404C13.4844 11.238 13.4847 11.2354 13.4844 11.2329C13.4841 11.2304 13.4832 11.228 13.4817 11.2258C13.4802 11.2237 13.4782 11.222 13.4759 11.2207C11.9906 10.4118 10.5057 9.60124 9.02142 8.78906C8.77277 8.653 8.58439 8.57633 8.45627 8.55908ZM19.5204 13.3921C19.5332 13.3989 19.5432 13.3965 19.5504 13.3848L21.7536 9.77734C21.7629 9.76237 21.7595 9.75049 21.7433 9.7417L20.6549 9.14697C20.6352 9.13623 20.6223 9.14128 20.6161 9.16211C20.5762 9.29622 20.5183 9.42464 20.4426 9.54736C19.845 10.5216 19.2484 11.4966 18.6526 12.4722C18.6037 12.5522 18.526 12.6486 18.4196 12.7612C18.4072 12.7743 18.4091 12.7852 18.4253 12.7939L19.5204 13.3921ZM21.7464 14.5088C22.2382 13.4233 22.8369 12.4023 23.5854 11.4409C23.7845 11.1851 23.9012 11.0037 23.9357 10.897C24.0142 10.6551 23.967 10.4305 23.7941 10.2231C23.6201 10.0137 23.2646 9.86572 23.0033 9.7207C23.001 9.71943 22.9984 9.71861 22.9958 9.71829C22.9931 9.71797 22.9904 9.71816 22.9878 9.71884C22.9852 9.71952 22.9828 9.72069 22.9807 9.72226C22.9785 9.72384 22.9767 9.7258 22.9754 9.72803C22.1047 11.1545 21.2374 12.5811 20.3733 14.0078C19.943 14.7188 20.9323 15.4175 21.5331 14.8516C21.6009 14.7874 21.672 14.6732 21.7464 14.5088ZM9.11148 11.6107C9.1145 11.6058 9.11531 11.5999 9.11375 11.5944C9.11219 11.5889 9.10839 11.5842 9.10317 11.5814L8.05631 11.0101C8.05109 11.0072 8.04489 11.0065 8.03906 11.0079C8.03324 11.0094 8.02828 11.013 8.02526 11.0179L7.42086 12.0074C7.41785 12.0124 7.41703 12.0182 7.41859 12.0237C7.42015 12.0293 7.42396 12.0339 7.42918 12.0368L8.47603 12.6081C8.48125 12.6109 8.48746 12.6117 8.49328 12.6102C8.4991 12.6088 8.50407 12.6052 8.50708 12.6002L9.11148 11.6107ZM4.63769 14.0088L8.06419 15.8789C8.06683 15.8804 8.06976 15.8814 8.0728 15.8818C8.07585 15.8822 8.07895 15.8821 8.08193 15.8813C8.08491 15.8806 8.0877 15.8793 8.09016 15.8776C8.09261 15.8758 8.09467 15.8736 8.09622 15.8711L8.86437 14.6133C8.9457 14.4802 8.96554 14.3208 8.91952 14.1701C8.8735 14.0195 8.7654 13.89 8.619 13.8101L6.25563 12.5205C6.10922 12.4406 5.93652 12.4169 5.77552 12.4545C5.61451 12.4922 5.47838 12.5881 5.39707 12.7212L4.62891 13.979C4.62593 13.9841 4.62518 13.99 4.62682 13.9956C4.62846 14.0012 4.63237 14.0059 4.63769 14.0088ZM7.5571 16.7507C7.55842 16.7486 7.55928 16.7462 7.55963 16.7437C7.55997 16.7412 7.5598 16.7387 7.55911 16.7363C7.55843 16.7339 7.55725 16.7316 7.55564 16.7296C7.55403 16.7276 7.55202 16.726 7.54973 16.7247L4.12105 14.8536C4.11642 14.8511 4.11093 14.8504 4.10577 14.8517C4.1006 14.853 4.0962 14.8562 4.09353 14.8606L3.02937 16.6028C3.02805 16.605 3.02719 16.6073 3.02684 16.6098C3.0265 16.6123 3.02667 16.6148 3.02736 16.6172C3.02804 16.6197 3.02922 16.6219 3.03083 16.6239C3.03244 16.6259 3.03445 16.6276 3.03674 16.6288L6.46542 18.4999C6.47005 18.5024 6.47555 18.5031 6.48071 18.5018C6.48587 18.5005 6.49027 18.4973 6.49294 18.4929L7.5571 16.7507ZM5.94361 19.3467L2.52745 17.4751C2.5243 17.4733 2.5208 17.4722 2.51718 17.4717C2.51355 17.4712 2.50985 17.4714 2.5063 17.4722C2.50275 17.4731 2.49942 17.4746 2.49649 17.4767C2.49356 17.4788 2.49109 17.4814 2.48922 17.4844L1.73036 18.7222C1.6464 18.8591 1.62351 19.0219 1.66672 19.1749C1.70993 19.328 1.81569 19.4586 1.96076 19.5381L4.33136 20.8369C4.47638 20.9163 4.64876 20.9381 4.81062 20.8975C4.97248 20.857 5.11057 20.7574 5.19457 20.6206L5.95395 19.3828C5.95579 19.3798 5.95699 19.3765 5.95747 19.373C5.95795 19.3696 5.9577 19.3661 5.95674 19.3627C5.95578 19.3594 5.95412 19.3562 5.95187 19.3535C5.94962 19.3507 5.94681 19.3484 5.94361 19.3467ZM3.1644 21.3218L2.10902 20.7461C2.09628 20.7393 2.08629 20.7417 2.07906 20.7534C1.82937 21.16 1.58038 21.568 1.33208 21.9775C1.29006 22.0469 1.26492 22.1211 1.25666 22.2002C1.21257 22.6188 1.17125 23.0389 1.13268 23.4604C1.13095 23.4806 1.1387 23.485 1.15592 23.4736C1.53062 23.2311 1.90049 22.9826 2.26554 22.728C2.33476 22.6798 2.39073 22.6201 2.43343 22.5488C2.67829 22.1419 2.9235 21.7389 3.16905 21.3398C3.17095 21.3369 3.17154 21.3333 3.17066 21.3299C3.16979 21.3265 3.16754 21.3236 3.1644 21.3218Z" fill="white"/>
</svg>
